<?xml version="1.0" encoding="utf-8"?>
<!-- Generator: Adobe Illustrator 24.3.0, SVG Export Plug-In . SVG Version: 6.00 Build 0)  -->
<svg version="1.1" id="Layer_1" xmlns="http://www.w3.org/2000/svg" xmlns:xlink="http://www.w3.org/1999/xlink" x="0px" y="0px"
	 viewBox="0 0 570 174" style="enable-background:new 0 0 570 174;" xml:space="preserve">
<style type="text/css">
	.st0{fill:#FFFFFF;}
</style>
<g>
	<path d="M545.4,170.7H24.7c-12,0-21.6-9.7-21.6-21.6V24.4c0-12,9.7-21.6,21.6-21.6h520.7c12,0,21.6,9.7,21.6,21.6v124.7
		C567.1,161,557.4,170.7,545.4,170.7z"/>
</g>
<g>
	<g>
		<path class="st0" d="M140.9,106.9c-0.8,1.9-1.5,3.8-2.4,5.7c-2.9,6.1-6.8,11.6-11.5,16.6c-2,2.1-4.3,3.9-7.2,4.9
			c-3,1.1-6.1,1-9.1,0.1c-2.1-0.6-4.1-1.4-6.2-2.1c-2.9-0.9-5.8-1.5-8.9-1.3c-2.8,0.1-5.5,0.8-8.1,1.7c-2.4,0.9-4.8,1.8-7.3,2.3
			c-3.9,0.8-7.3-0.2-10.4-2.4c-3.2-2.2-5.6-5.1-8-8.1c-3.3-4.1-6-8.4-8.2-13.1c-2.5-5.5-4.4-11.1-5.2-17c-1-6.6-1-13.1,1.2-19.5
			c2.6-7.6,7.4-13.4,15-17c4.1-1.9,8.4-2.9,12.9-2.6c3,0.2,5.7,1,8.5,2c2.3,0.8,4.6,1.5,6.9,2.2c1.9,0.6,3.7,0.2,5.5-0.3
			c3.2-1,6.4-2.1,9.6-3.1c3.7-1.1,7.4-1.4,11.3-0.9c3.9,0.6,7.6,1.6,11,3.5c3.1,1.7,5.6,4,7.7,6.8c-8.6,4.9-13,12.1-12.3,21.7
			C126.3,96.4,132,102.8,140.9,106.9z"/>
	</g>
	<g>
		<path class="st0" d="M117.4,29.7c0,1.4,0.1,2.8,0,4.2c-0.5,4.8-2.7,8.9-5.9,12.6c-2.4,2.7-5.1,4.9-8.4,6.4
			c-2.7,1.2-5.6,1.8-8.7,1.6c-0.3-1.5-0.2-2.9,0-4.4c0.8-5.2,3.3-9.5,7-13.3c2.4-2.5,5.4-4.2,8.7-5.5c2.1-0.9,4.3-1.5,6.7-1.7
			C117,29.7,117.2,29.7,117.4,29.7z"/>
	</g>
</g>
<g>
	<g>
		<path class="st0" d="M168.4,133.7l22.7-56.3h8.4l24.2,56.3h-8.9l-6.9-17.1h-24.7l-6.5,17.1H168.4z M185.5,110.5h20.1l-6.2-15.6
			c-1.9-4.7-3.3-8.6-4.2-11.7c-0.8,3.6-1.8,7.2-3.2,10.8L185.5,110.5z"/>
	</g>
	<g>
		<path class="st0" d="M229.1,149.3V92.9h6.6v5.3c1.6-2.1,3.3-3.6,5.3-4.7c2-1,4.3-1.6,7.1-1.6c3.7,0,6.9,0.9,9.7,2.7
			c2.8,1.8,4.9,4.3,6.3,7.6s2.1,6.8,2.1,10.7c0,4.2-0.8,7.9-2.4,11.3c-1.6,3.3-3.9,5.9-6.9,7.7c-3,1.8-6.2,2.7-9.5,2.7
			c-2.4,0-4.6-0.5-6.5-1.5c-1.9-1-3.5-2.2-4.7-3.7v19.9H229.1z M235.7,113.5c0,5.2,1.1,9.1,3.3,11.6c2.2,2.5,4.9,3.8,8.1,3.8
			c3.2,0,6-1.3,8.3-3.9c2.3-2.6,3.4-6.6,3.4-12.1c0-5.2-1.1-9.1-3.4-11.7c-2.2-2.6-4.9-3.9-8-3.9c-3.1,0-5.8,1.4-8.2,4.1
			C236.9,104.2,235.7,108.2,235.7,113.5z"/>
	</g>
	<g>
		<path class="st0" d="M275.1,149.3V92.9h6.6v5.3c1.6-2.1,3.3-3.6,5.3-4.7c2-1,4.3-1.6,7.1-1.6c3.7,0,6.9,0.9,9.7,2.7
			c2.8,1.8,4.9,4.3,6.3,7.6c1.4,3.3,2.1,6.8,2.1,10.7c0,4.2-0.8,7.9-2.4,11.3c-1.6,3.3-3.9,5.9-6.9,7.7c-3,1.8-6.2,2.7-9.5,2.7
			c-2.4,0-4.6-0.5-6.5-1.5c-1.9-1-3.5-2.2-4.7-3.7v19.9H275.1z M281.7,113.5c0,5.2,1.1,9.1,3.3,11.6c2.2,2.5,4.9,3.8,8.1,3.8
			c3.2,0,6-1.3,8.3-3.9c2.3-2.6,3.4-6.6,3.4-12.1c0-5.2-1.1-9.1-3.4-11.7c-2.2-2.6-4.9-3.9-8-3.9c-3.1,0-5.8,1.4-8.2,4.1
			C282.9,104.2,281.7,108.2,281.7,113.5z"/>
	</g>
	<g>
		<path class="st0" d="M342.3,115.6l7.4-0.6c0.3,2.8,1.2,5.1,2.4,6.9c1.3,1.8,3.3,3.3,6,4.4c2.7,1.1,5.7,1.7,9.1,1.7
			c3,0,5.6-0.4,7.9-1.3c2.3-0.8,4-2,5.1-3.5c1.1-1.5,1.7-3.1,1.7-4.8c0-1.8-0.5-3.3-1.6-4.6c-1.1-1.3-2.9-2.4-5.3-3.3
			c-1.6-0.6-5.1-1.5-10.5-2.7c-5.4-1.2-9.2-2.4-11.4-3.5c-2.8-1.4-4.9-3.2-6.3-5.2c-1.4-2.1-2.1-4.4-2.1-7c0-2.8,0.8-5.5,2.5-8
			c1.7-2.5,4.2-4.3,7.4-5.6c3.3-1.3,6.9-1.9,10.9-1.9c4.4,0,8.3,0.7,11.6,2c3.3,1.3,5.9,3.3,7.7,5.9s2.8,5.6,2.9,8.9l-7.5,0.5
			c-0.4-3.6-1.8-6.2-4.1-8.1c-2.3-1.8-5.8-2.7-10.3-2.7c-4.7,0-8.2,0.8-10.3,2.5c-2.2,1.7-3.2,3.6-3.2,6c0,2,0.8,3.7,2.3,5
			c1.5,1.3,5.4,2.6,11.8,4c6.4,1.4,10.7,2.6,13.1,3.6c3.4,1.5,6,3.4,7.6,5.7c1.6,2.3,2.5,5,2.5,8c0,3-0.9,5.8-2.7,8.5
			c-1.8,2.6-4.4,4.7-7.8,6.2c-3.4,1.5-7.2,2.2-11.4,2.2c-5.4,0-9.8-0.7-13.5-2.2c-3.6-1.5-6.5-3.7-8.5-6.7
			C343.5,122.7,342.4,119.3,342.3,115.6z"/>
	</g>
	<g>
		<path class="st0" d="M415,127.5l1,6.1c-2,0.4-3.9,0.6-5.5,0.6c-2.6,0-4.7-0.4-6.1-1.2c-1.5-0.8-2.5-1.8-3.1-3.1
			c-0.6-1.3-0.9-4-0.9-8.2V98.2h-5.3v-5.4h5.3V82.8l7.2-4.1v14.2h7.3v5.4h-7.3v23.8c0,2,0.1,3.2,0.4,3.8c0.3,0.6,0.7,1,1.3,1.3
			c0.6,0.3,1.4,0.5,2.5,0.5C412.6,127.7,413.7,127.6,415,127.5z"/>
	</g>
	<g>
		<path class="st0" d="M419.4,113.3c0-7.6,2.2-13.1,6.6-16.8c3.7-3,8.2-4.5,13.5-4.5c5.9,0,10.7,1.8,14.4,5.5
			c3.7,3.7,5.6,8.7,5.6,15.2c0,5.2-0.8,9.4-2.5,12.4c-1.7,3-4.1,5.3-7.2,7c-3.2,1.7-6.6,2.5-10.3,2.5c-6,0-10.8-1.8-14.5-5.5
			C421.2,125.4,419.4,120.1,419.4,113.3z M426.8,113.3c0,5.2,1.2,9.1,3.6,11.7c2.4,2.6,5.4,3.9,9,3.9c3.6,0,6.6-1.3,9-3.9
			s3.6-6.6,3.6-11.9c0-5-1.2-8.9-3.6-11.5c-2.4-2.6-5.4-3.9-9-3.9c-3.6,0-6.6,1.3-9,3.9S426.8,108,426.8,113.3z"/>
	</g>
	<g>
		<path class="st0" d="M468,133.7V92.9h6.5v6.2c1.7-2.9,3.2-4.8,4.6-5.7c1.4-0.9,3-1.4,4.7-1.4c2.4,0,4.9,0.7,7.5,2.2l-2.5,6.4
			c-1.8-1-3.6-1.5-5.3-1.5c-1.6,0-3,0.5-4.3,1.4c-1.3,0.9-2.2,2.2-2.7,3.8c-0.8,2.5-1.2,5.1-1.2,8.1v21.4H468z"/>
	</g>
	<g>
		<path class="st0" d="M524.9,120.5l7.5,0.9c-1.2,4.2-3.4,7.4-6.6,9.7c-3.2,2.3-7.3,3.5-12.3,3.5c-6.3,0-11.2-1.8-14.9-5.5
			c-3.7-3.7-5.5-8.8-5.5-15.5c0-6.9,1.9-12.2,5.6-16c3.7-3.8,8.5-5.7,14.4-5.7c5.7,0,10.4,1.9,14,5.6c3.6,3.7,5.4,8.9,5.4,15.7
			c0,0.4,0,1,0,1.8h-32c0.3,4.5,1.6,7.9,4,10.3c2.4,2.4,5.4,3.6,9,3.6c2.7,0,4.9-0.7,6.8-2C522.3,125.6,523.8,123.4,524.9,120.5z
			 M501.1,109.3H525c-0.3-3.4-1.2-6-2.7-7.7c-2.3-2.7-5.3-4-9-4c-3.3,0-6.1,1.1-8.4,3.2C502.6,102.9,501.3,105.8,501.1,109.3z"/>
	</g>
</g>
<g>
	<g>
		<path class="st0" d="M168.4,69.6V38.4h11.3c2.5,0,4.5,0.1,5.8,0.4c1.9,0.4,3.5,1.2,4.8,2.2c1.7,1.4,3,3.2,3.9,5.3
			c0.9,2.2,1.3,4.6,1.3,7.4c0,2.4-0.3,4.5-0.9,6.3c-0.6,1.8-1.3,3.3-2.2,4.5c-0.9,1.2-1.9,2.1-3,2.8c-1.1,0.7-2.4,1.2-3.9,1.6
			c-1.5,0.4-3.3,0.5-5.3,0.5H168.4z M172.8,65.9h7c2.2,0,3.9-0.2,5.1-0.6c1.2-0.4,2.2-0.9,2.9-1.6c1-1,1.8-2.3,2.4-3.9
			c0.6-1.7,0.9-3.7,0.9-6c0-3.3-0.6-5.8-1.7-7.5c-1.1-1.8-2.5-2.9-4.1-3.5c-1.2-0.4-3-0.6-5.6-0.6h-6.9V65.9z"/>
	</g>
	<g>
		<path class="st0" d="M199.5,58.3c0-4.2,1.2-7.3,3.7-9.3c2-1.7,4.5-2.5,7.5-2.5c3.3,0,5.9,1,8,3.1c2.1,2,3.1,4.9,3.1,8.4
			c0,2.9-0.5,5.2-1.4,6.9c-0.9,1.7-2.3,3-4,3.9c-1.8,0.9-3.7,1.4-5.7,1.4c-3.3,0-6-1-8.1-3C200.5,65.1,199.5,62.1,199.5,58.3z
			 M203.6,58.3c0,2.9,0.7,5.1,2,6.5c1.3,1.4,3,2.2,5,2.2c2,0,3.7-0.7,5-2.2c1.3-1.4,2-3.7,2-6.6c0-2.8-0.7-4.9-2-6.4
			c-1.3-1.4-3-2.2-5-2.2c-2,0-3.7,0.7-5,2.2C204.3,53.3,203.6,55.4,203.6,58.3z"/>
	</g>
	<g>
		<path class="st0" d="M230.9,69.6L223.6,47h4.2l3.8,13l1.4,4.9c0.1-0.2,0.5-1.8,1.2-4.7L238,47h4.1l3.6,13.1l1.2,4.3l1.4-4.4
			l4.1-13.1h3.9l-7.4,22.6h-4.2l-3.8-13.5l-0.9-3.9l-4.8,17.4H230.9z"/>
	</g>
	<g>
		<path class="st0" d="M259.6,69.6V47h3.6v3.2c1.7-2.5,4.3-3.7,7.6-3.7c1.4,0,2.7,0.2,3.9,0.7s2.1,1.1,2.7,1.9
			c0.6,0.8,1,1.7,1.3,2.8c0.1,0.7,0.2,2,0.2,3.7v13.9h-4V55.9c0-1.6-0.2-2.7-0.5-3.5c-0.3-0.8-0.9-1.4-1.7-1.9
			c-0.8-0.5-1.7-0.7-2.8-0.7c-1.7,0-3.2,0.5-4.4,1.6c-1.2,1-1.9,3-1.9,5.9v12.3H259.6z"/>
	</g>
	<g>
		<path class="st0" d="M285,69.6V38.4h4v31.2H285z"/>
	</g>
	<g>
		<path class="st0" d="M293.7,58.3c0-4.2,1.2-7.3,3.7-9.3c2-1.7,4.5-2.5,7.5-2.5c3.3,0,5.9,1,8,3.1c2.1,2,3.1,4.9,3.1,8.4
			c0,2.9-0.5,5.2-1.4,6.9c-0.9,1.7-2.3,3-4,3.9c-1.8,0.9-3.7,1.4-5.7,1.4c-3.3,0-6-1-8.1-3C294.7,65.1,293.7,62.1,293.7,58.3z
			 M297.9,58.3c0,2.9,0.7,5.1,2,6.5c1.3,1.4,3,2.2,5,2.2c2,0,3.7-0.7,5-2.2c1.3-1.4,2-3.7,2-6.6c0-2.8-0.7-4.9-2-6.4
			c-1.3-1.4-3-2.2-5-2.2c-2,0-3.7,0.7-5,2.2C298.5,53.3,297.9,55.4,297.9,58.3z"/>
	</g>
	<g>
		<path class="st0" d="M336.2,66.8c-1.5,1.2-2.9,2.1-4.3,2.6c-1.4,0.5-2.9,0.7-4.4,0.7c-2.6,0-4.6-0.6-6-1.8
			c-1.4-1.2-2.1-2.8-2.1-4.7c0-1.1,0.3-2.1,0.8-3c0.5-0.9,1.2-1.6,2.1-2.2c0.9-0.6,1.8-1,2.9-1.3c0.8-0.2,2-0.4,3.6-0.6
			c3.3-0.4,5.6-0.8,7.2-1.3c0-0.5,0-0.9,0-1c0-1.6-0.4-2.7-1.1-3.3c-1-0.9-2.6-1.3-4.6-1.3c-1.9,0-3.3,0.3-4.2,0.9
			c-0.9,0.6-1.6,1.7-2,3.4l-3.9-0.5c0.4-1.6,0.9-2.9,1.8-3.9c0.8-1,2-1.7,3.6-2.3c1.6-0.5,3.3-0.8,5.4-0.8c2,0,3.7,0.2,4.9,0.7
			c1.3,0.5,2.2,1,2.8,1.7c0.6,0.7,1,1.6,1.3,2.6c0.1,0.7,0.2,1.8,0.2,3.5v5.1c0,3.6,0.1,5.8,0.3,6.8s0.5,1.8,1,2.7H337
			C336.6,68.8,336.3,67.9,336.2,66.8z M335.9,58.3c-1.5,0.6-3.7,1.1-6.6,1.4c-1.7,0.2-2.8,0.5-3.5,0.8c-0.7,0.3-1.2,0.7-1.6,1.2
			c-0.4,0.5-0.6,1.2-0.6,1.8c0,1,0.4,1.9,1.2,2.6c0.8,0.7,2,1,3.6,1c1.6,0,2.9-0.3,4.1-1c1.2-0.6,2.1-1.5,2.7-2.7
			c0.4-0.9,0.6-2.1,0.6-3.8V58.3z"/>
	</g>
	<g>
		<path class="st0" d="M361.6,69.6v-2.9c-1.5,2.2-3.7,3.4-6.6,3.4c-1.9,0-3.6-0.5-5.2-1.5c-1.6-1-2.8-2.4-3.7-4.2
			c-0.9-1.8-1.3-3.8-1.3-6.1c0-2.3,0.4-4.3,1.2-6.1s2-3.2,3.6-4.2c1.6-1,3.3-1.5,5.3-1.5c1.4,0,2.7,0.3,3.8,0.9
			c1.1,0.6,2,1.3,2.7,2.2V38.4h4v31.2H361.6z M348.9,58.3c0,2.9,0.6,5.1,1.9,6.5c1.3,1.4,2.8,2.2,4.5,2.2c1.8,0,3.3-0.7,4.5-2.1
			c1.2-1.4,1.8-3.5,1.8-6.3c0-3.1-0.6-5.4-1.9-6.8c-1.3-1.4-2.8-2.2-4.6-2.2c-1.8,0-3.3,0.7-4.5,2.1
			C349.5,53.2,348.9,55.3,348.9,58.3z"/>
	</g>
	<g>
		<path class="st0" d="M382.9,58.3c0-4.2,1.2-7.3,3.7-9.3c2-1.7,4.5-2.5,7.5-2.5c3.3,0,5.9,1,8,3.1c2.1,2,3.1,4.9,3.1,8.4
			c0,2.9-0.5,5.2-1.4,6.9c-0.9,1.7-2.3,3-4,3.9c-1.8,0.9-3.7,1.4-5.7,1.4c-3.3,0-6-1-8.1-3C383.9,65.1,382.9,62.1,382.9,58.3z
			 M387,58.3c0,2.9,0.7,5.1,2,6.5c1.3,1.4,3,2.2,5,2.2c2,0,3.7-0.7,5-2.2c1.3-1.4,2-3.7,2-6.6c0-2.8-0.7-4.9-2-6.4
			c-1.3-1.4-3-2.2-5-2.2c-2,0-3.7,0.7-5,2.2S387,55.4,387,58.3z"/>
	</g>
	<g>
		<path class="st0" d="M409.9,69.6V47h3.6v3.2c1.7-2.5,4.3-3.7,7.6-3.7c1.4,0,2.7,0.2,3.9,0.7s2.1,1.1,2.7,1.9
			c0.6,0.8,1,1.7,1.3,2.8c0.1,0.7,0.2,2,0.2,3.7v13.9h-4V55.9c0-1.6-0.2-2.7-0.5-3.5c-0.3-0.8-0.9-1.4-1.7-1.9
			c-0.8-0.5-1.7-0.7-2.8-0.7c-1.7,0-3.2,0.5-4.4,1.6c-1.2,1-1.9,3-1.9,5.9v12.3H409.9z"/>
	</g>
	<g>
		<path class="st0" d="M456.8,66.2l0.6,3.4c-1.1,0.2-2.1,0.3-3,0.3c-1.5,0-2.6-0.2-3.4-0.7s-1.4-1-1.7-1.7c-0.3-0.7-0.5-2.2-0.5-4.5
			V50h-3v-3h3v-5.6l4-2.3V47h4v3h-4v13.2c0,1.1,0.1,1.8,0.2,2.1c0.1,0.3,0.4,0.6,0.7,0.7c0.3,0.2,0.8,0.3,1.4,0.3
			C455.5,66.3,456.1,66.3,456.8,66.2z"/>
	</g>
	<g>
		<path class="st0" d="M460.8,69.6V38.4h4v11.2c1.9-2.1,4.2-3.1,7.1-3.1c1.8,0,3.3,0.3,4.6,1c1.3,0.7,2.2,1.6,2.8,2.7
			c0.6,1.2,0.8,2.9,0.8,5.1v14.3h-4V55.3c0-1.9-0.4-3.3-1.3-4.2c-0.9-0.9-2.1-1.3-3.7-1.3c-1.2,0-2.3,0.3-3.4,0.9s-1.8,1.4-2.2,2.4
			c-0.4,1-0.7,2.4-0.7,4.2v12.4H460.8z"/>
	</g>
	<g>
		<path class="st0" d="M502.5,62.3l4.2,0.5c-0.7,2.3-1.9,4.1-3.6,5.4c-1.8,1.3-4,1.9-6.8,1.9c-3.5,0-6.2-1-8.3-3.1
			c-2-2-3.1-4.9-3.1-8.6c0-3.8,1-6.8,3.1-8.9c2.1-2.1,4.7-3.2,8-3.2c3.2,0,5.8,1,7.8,3.1s3,5,3,8.7c0,0.2,0,0.6,0,1h-17.7
			c0.1,2.5,0.9,4.4,2.2,5.7c1.3,1.3,3,2,5,2c1.5,0,2.7-0.4,3.8-1.1C501.1,65.1,501.9,64,502.5,62.3z M489.3,56.1h13.3
			c-0.2-1.9-0.7-3.3-1.5-4.3c-1.3-1.5-2.9-2.2-5-2.2c-1.8,0-3.4,0.6-4.7,1.8C490.1,52.6,489.4,54.2,489.3,56.1z"/>
	</g>
</g>
</svg>
