<?xml version="1.0" encoding="utf-8"?>
<!-- Generator: Adobe Illustrator 24.3.0, SVG Export Plug-In . SVG Version: 6.00 Build 0)  -->
<svg version="1.1" id="Layer_1" xmlns="http://www.w3.org/2000/svg" xmlns:xlink="http://www.w3.org/1999/xlink" x="0px" y="0px"
	 viewBox="0 0 240 240" style="enable-background:new 0 0 240 240;" xml:space="preserve">
<style type="text/css">
	.st0{fill:#142328;}
	.st1{fill:#FFFFFF;}
	.st2{fill:#06C167;}
</style>
<image style="overflow:visible;" width="240" height="240" xlink:href="C:\Users\dev prakash\Downloads\ThumbnailLinkImg.jpg"  transform="matrix(1 0 0 1 -252.2553 0)">
</image>
<rect class="st0" width="240" height="240"/>
<g>
	<path class="st1" d="M53.8,75.6v5.2H37.3v11.5h12.9v5.2H37.3v17h-6.4V75.6H53.8z"/>
	<path class="st1" d="M68.8,73.1v41.4h-6.4V73.1H68.8z"/>
	<path class="st1" d="M79.7,90.7c1.3-2.4,3-4.2,5.3-5.6c2.2-1.3,4.7-2,7.4-2c2.4,0,4.5,0.5,6.4,1.4c1.8,1,3.3,2.1,4.3,3.6v-4.5h6.4
		v30.9h-6.4v-4.6c-1.1,1.5-2.6,2.7-4.4,3.6c-1.9,1-4,1.5-6.4,1.5c-2.7,0-5.1-0.7-7.3-2c-2.2-1.4-3.9-3.3-5.2-5.7
		c-1.3-2.4-1.9-5.2-1.9-8.3C77.8,95.8,78.4,93.1,79.7,90.7z M101.7,93.5c-0.9-1.6-2-2.8-3.4-3.6c-1.4-0.8-3-1.2-4.6-1.2
		s-3.2,0.4-4.6,1.2c-1.4,0.8-2.6,2-3.4,3.5c-0.9,1.5-1.3,3.4-1.3,5.5s0.4,4,1.3,5.6c0.9,1.6,2,2.8,3.5,3.7c1.4,0.8,3,1.3,4.6,1.3
		c1.6,0,3.2-0.4,4.6-1.2c1.4-0.8,2.6-2,3.4-3.6c0.9-1.6,1.3-3.4,1.3-5.6S102.6,95.1,101.7,93.5z"/>
	<path class="st1" d="M132.5,108.8l8.7-25.1h6.8l-11.8,30.9h-7.6l-11.7-30.9h6.8L132.5,108.8z"/>
	<path class="st1" d="M161,113c-2.4-1.3-4.2-3.2-5.5-5.6c-1.3-2.4-2-5.2-2-8.4c0-3.1,0.7-5.9,2.1-8.3c1.4-2.4,3.3-4.3,5.7-5.6
		c2.4-1.3,5.1-2,8-2c2.9,0,5.6,0.7,8,2c2.4,1.3,4.3,3.2,5.7,5.6c1.4,2.4,2.1,5.2,2.1,8.3c0,3.1-0.7,5.9-2.1,8.3
		c-1.4,2.4-3.4,4.3-5.8,5.6c-2.4,1.3-5.1,2-8.1,2C166,115,163.4,114.3,161,113z M173.5,108.3c1.4-0.8,2.6-2,3.5-3.5
		c0.9-1.6,1.3-3.5,1.3-5.7c0-2.2-0.4-4.1-1.3-5.7c-0.9-1.5-2-2.7-3.4-3.5c-1.4-0.8-2.9-1.2-4.6-1.2c-1.6,0-3.2,0.4-4.6,1.2
		c-1.4,0.8-2.5,2-3.3,3.5c-0.8,1.5-1.2,3.4-1.2,5.7c0,3.3,0.8,5.9,2.5,7.7c1.7,1.8,3.8,2.7,6.4,2.7
		C170.6,109.5,172.1,109.1,173.5,108.3z"/>
	<path class="st1" d="M204.1,84.5c1.5-0.9,3.4-1.3,5.5-1.3v6.6h-1.6c-2.5,0-4.4,0.6-5.7,1.9c-1.3,1.3-1.9,3.5-1.9,6.6v16.2h-6.4
		V83.6h6.4v4.5C201.3,86.6,202.5,85.3,204.1,84.5z"/>
	<path class="st2" d="M64.3,127.2v39.3h-9.6v-16.2H39.8v16.2h-9.6v-39.3h9.6v15.4h14.9v-15.4H64.3z"/>
	<path class="st2" d="M71.1,142.4c1.2-2.4,2.9-4.3,5-5.6s4.4-2,7-2c2.2,0,4.1,0.4,5.8,1.3s2.9,2.1,3.8,3.5v-4.4h9.6v31.2h-9.6v-4.4
		c-0.9,1.5-2.2,2.6-3.9,3.5s-3.6,1.3-5.8,1.3c-2.5,0-4.9-0.7-6.9-2c-2.1-1.3-3.7-3.2-5-5.7c-1.2-2.4-1.8-5.3-1.8-8.5
		C69.2,147.6,69.8,144.8,71.1,142.4z M90.7,145.2c-1.3-1.4-2.9-2.1-4.8-2.1c-1.9,0-3.5,0.7-4.8,2c-1.3,1.4-2,3.2-2,5.6
		c0,2.4,0.7,4.3,2,5.7c1.3,1.4,2.9,2.1,4.8,2.1c1.9,0,3.5-0.7,4.8-2.1c1.3-1.4,2-3.3,2-5.7C92.6,148.5,92,146.6,90.7,145.2z"/>
	<path class="st2" d="M123.2,157.5l6.8-22.3h10.2l-11.1,31.2h-11.8l-11.1-31.2h10.2L123.2,157.5z"/>
	<path class="st2" d="M173.5,153.2h-21.7c0.1,1.9,0.8,3.4,1.9,4.5c1.1,1,2.5,1.5,4.1,1.5c2.4,0,4-1,5-3h10.2
		c-0.5,2.1-1.5,3.9-2.8,5.5c-1.4,1.6-3.1,2.9-5.1,3.9c-2.1,0.9-4.3,1.4-6.9,1.4c-3.1,0-5.8-0.7-8.2-2c-2.4-1.3-4.3-3.2-5.6-5.6
		s-2-5.3-2-8.5s0.7-6.1,2-8.5c1.3-2.4,3.2-4.3,5.6-5.6c2.4-1.3,5.1-2,8.2-2c3,0,5.7,0.6,8.1,1.9c2.4,1.3,4.2,3.1,5.5,5.4
		c1.3,2.4,2,5.1,2,8.2C173.7,151.3,173.6,152.2,173.5,153.2z M163.9,147.8c0-1.6-0.6-2.9-1.7-3.9s-2.5-1.5-4.2-1.5
		c-1.6,0-3,0.5-4.1,1.4c-1.1,0.9-1.8,2.3-2,4H163.9z"/>
	<path class="st2" d="M206.5,138.5c2.2,2.4,3.3,5.6,3.3,9.8v18.3h-9.5v-17c0-2.1-0.5-3.7-1.6-4.9c-1.1-1.2-2.5-1.7-4.4-1.7
		c-1.8,0-3.3,0.6-4.4,1.7c-1.1,1.2-1.6,2.8-1.6,4.9v17h-9.6v-31.2h9.6v4.1c1-1.4,2.3-2.5,3.9-3.3c1.6-0.8,3.5-1.2,5.5-1.2
		C201.4,134.9,204.3,136.1,206.5,138.5z"/>
</g>
</svg>
