<?xml version="1.0" encoding="utf-8"?>
<!-- Generator: Adobe Illustrator 24.3.0, SVG Export Plug-In . SVG Version: 6.00 Build 0)  -->
<svg version="1.1" id="Layer_1" xmlns="http://www.w3.org/2000/svg" xmlns:xlink="http://www.w3.org/1999/xlink" x="0px" y="0px"
	 viewBox="0 0 570 174" style="enable-background:new 0 0 570 174;" xml:space="preserve">
<style type="text/css">
	.st0{fill:#00F076;}
	.st1{fill:#F1314B;}
	.st2{fill:#FFFFFF;}
	.st3{fill:#00D3FF;}
	.st4{fill:#FFC400;}
</style>
<g>
	<path d="M544.1,170.7h-518c-12.7,0-23-10.3-23-23v-122c0-12.7,10.3-23,23-23h518c12.7,0,23,10.3,23,23v122
		C567.1,160.4,556.8,170.7,544.1,170.7z"/>
</g>
<g>
	<g>
		<path class="st0" d="M105.1,84.1L74.5,59.8L43.9,35.3v-2.5c0-4.1,4.6-6.7,8.4-4.7L101.2,54L124.1,66L105.1,84.1z"/>
	</g>
	<g>
		<path class="st1" d="M43.9,135.5V133l30.6-24.4l30.4-24.3l19,18.1l-22.7,12l-48.9,25.8C48.6,142.2,43.9,139.6,43.9,135.5z"/>
	</g>
	<g>
		<polygon class="st2" points="43.9,133 43.9,35.3 74.5,59.8 105.1,84.1 105.1,84.2 104.9,84.3 74.5,108.6 		"/>
	</g>
	<g>
		<polygon class="st3" points="43.9,133 43.9,35.3 74.5,59.8 105.1,84.1 105.1,84.2 104.9,84.3 74.5,108.6 		"/>
	</g>
	<g>
		<path class="st4" d="M123.9,102.4l-19-18.1l0.2-0.2l-0.1,0l19-18.1l25.5,13.5c3.9,2.1,3.9,7.4,0,9.4L123.9,102.4z"/>
	</g>
	<g>
		<polygon class="st2" points="104.9,84.3 104.9,84.3 105.1,84.1 105.1,84.2 		"/>
	</g>
</g>
<g>
	<g>
		<g>
			<path class="st2" d="M192.6,113v-7.3h19.8v17.2c-1.9,1.8-4.7,3.3-8.4,4.7c-3.6,1.3-7.3,2-11.1,2c-4.8,0-8.9-0.9-12.4-2.8
				c-3.5-1.9-6.2-4.6-8-8.1c-1.8-3.5-2.7-7.4-2.7-11.5c0-4.5,1-8.5,3-12c2-3.5,4.9-6.2,8.7-8.1c2.9-1.4,6.5-2.2,10.9-2.2
				c5.6,0,10,1.1,13.2,3.4c3.2,2.3,5.2,5.4,6.1,9.3l-9.1,1.6c-0.6-2.1-1.8-3.8-3.6-5c-1.8-1.2-4-1.8-6.6-1.8c-4,0-7.2,1.2-9.6,3.6
				c-2.4,2.4-3.5,6-3.5,10.8c0,5.1,1.2,9,3.6,11.5c2.4,2.6,5.5,3.8,9.4,3.8c1.9,0,3.8-0.4,5.8-1.1c1.9-0.7,3.6-1.6,5-2.6V113H192.6z
				"/>
		</g>
		<g>
			<path class="st2" d="M218.7,112.8c0-2.8,0.7-5.4,2.1-8c1.4-2.6,3.4-4.5,6.1-5.9c2.6-1.4,5.5-2,8.8-2c5,0,9.1,1.5,12.2,4.6
				c3.2,3.1,4.8,7,4.8,11.7c0,4.7-1.6,8.7-4.8,11.8s-7.3,4.7-12.1,4.7c-3,0-5.9-0.6-8.6-1.9c-2.7-1.3-4.8-3.2-6.2-5.7
				C219.4,119.4,218.7,116.4,218.7,112.8z M227.6,113.2c0,3.1,0.8,5.5,2.3,7.1c1.5,1.7,3.5,2.5,5.7,2.5s4.2-0.8,5.7-2.5
				c1.5-1.7,2.3-4.1,2.3-7.2c0-3.1-0.8-5.4-2.3-7.1c-1.5-1.7-3.4-2.5-5.7-2.5s-4.2,0.8-5.7,2.5C228.4,107.7,227.6,110.1,227.6,113.2
				z"/>
		</g>
		<g>
			<path class="st2" d="M257.5,112.8c0-2.8,0.7-5.4,2.1-8c1.4-2.6,3.4-4.5,6.1-5.9c2.6-1.4,5.5-2,8.8-2c5,0,9.1,1.5,12.2,4.6
				s4.8,7,4.8,11.7c0,4.7-1.6,8.7-4.8,11.8c-3.2,3.1-7.3,4.7-12.1,4.7c-3,0-5.9-0.6-8.6-1.9c-2.7-1.3-4.8-3.2-6.2-5.7
				C258.2,119.4,257.5,116.4,257.5,112.8z M266.4,113.2c0,3.1,0.8,5.5,2.3,7.1c1.5,1.7,3.5,2.5,5.7,2.5s4.2-0.8,5.7-2.5
				c1.5-1.7,2.3-4.1,2.3-7.2c0-3.1-0.8-5.4-2.3-7.1c-1.5-1.7-3.4-2.5-5.7-2.5s-4.2,0.8-5.7,2.5C267.2,107.7,266.4,110.1,266.4,113.2
				z"/>
		</g>
		<g>
			<path class="st2" d="M297.5,130.9l9.9,1.2c0.2,1.1,0.5,1.9,1.1,2.3c0.8,0.6,2.1,0.9,3.9,0.9c2.3,0,4-0.3,5.1-1
				c0.8-0.4,1.3-1.1,1.7-2.1c0.3-0.7,0.4-2,0.4-3.8v-4.6c-2.6,3.4-5.9,5.1-9.9,5.1c-4.4,0-7.9-1.8-10.5-5.3c-2-2.8-3-6.3-3-10.5
				c0-5.3,1.3-9.3,4-12c2.7-2.8,6-4.2,9.9-4.2c4.1,0,7.4,1.7,10.1,5.1v-4.4h8.2v28.1c0,3.7-0.3,6.5-1,8.3c-0.6,1.8-1.5,3.3-2.7,4.3
				c-1.2,1-2.7,1.9-4.6,2.4c-1.9,0.6-4.4,0.9-7.3,0.9c-5.6,0-9.5-0.9-11.9-2.7c-2.3-1.8-3.5-4.1-3.5-6.9
				C297.4,131.7,297.5,131.3,297.5,130.9z M305.3,112.6c0,3.3,0.7,5.8,2,7.3s3,2.3,5,2.3c2.1,0,3.9-0.8,5.4-2.4
				c1.5-1.6,2.2-3.9,2.2-7c0-3.2-0.7-5.7-2.1-7.2c-1.4-1.6-3.2-2.4-5.3-2.4c-2.1,0-3.8,0.8-5.2,2.3S305.3,109.4,305.3,112.6z"/>
		</g>
		<g>
			<path class="st2" d="M337.1,128.9V85.6h8.7v43.2H337.1z"/>
		</g>
		<g>
			<path class="st2" d="M373.7,118.9l8.7,1.4c-1.1,3-2.9,5.3-5.3,6.9c-2.4,1.6-5.4,2.4-9,2.4c-5.7,0-10-1.8-12.7-5.3
				c-2.2-2.9-3.3-6.5-3.3-10.8c0-5.2,1.4-9.3,4.3-12.2c2.9-2.9,6.5-4.4,10.8-4.4c4.9,0,8.8,1.5,11.6,4.6c2.8,3.1,4.2,7.8,4.1,14.1
				h-21.8c0.1,2.5,0.8,4.4,2.1,5.7c1.3,1.4,3,2.1,5,2.1c1.4,0,2.5-0.4,3.4-1.1C372.6,121.6,373.3,120.5,373.7,118.9z M374.2,110.5
				c-0.1-2.4-0.7-4.2-2-5.5s-2.7-1.9-4.5-1.9c-1.9,0-3.5,0.7-4.7,2c-1.2,1.3-1.8,3.1-1.8,5.4H374.2z"/>
		</g>
		<g>
			<path class="st2" d="M407.7,128.9V85.6h14.7c5.6,0,9.2,0.2,10.9,0.6c2.6,0.6,4.8,2.1,6.5,4.2c1.8,2.2,2.6,5,2.6,8.4
				c0,2.7-0.5,4.9-1.5,6.7c-1,1.8-2.3,3.2-3.9,4.3c-1.6,1-3.1,1.7-4.8,2.1c-2.2,0.4-5.4,0.6-9.5,0.6h-6v16.3H407.7z M416.9,92.9
				v12.3h5c3.6,0,6-0.2,7.3-0.7c1.2-0.5,2.2-1.2,2.9-2.1s1-2.1,1-3.4c0-1.6-0.5-2.9-1.5-3.9c-1-1-2.2-1.7-3.7-1.9
				c-1.1-0.2-3.3-0.3-6.6-0.3H416.9z"/>
		</g>
		<g>
			<path class="st2" d="M450,128.9V85.6h8.7v43.2H450z"/>
		</g>
		<g>
			<path class="st2" d="M474.1,107.1l-7.9-1.4c0.9-3,2.4-5.3,4.6-6.7c2.2-1.5,5.4-2.2,9.7-2.2c3.9,0,6.8,0.4,8.7,1.3
				c1.9,0.9,3.2,2,4,3.3c0.8,1.3,1.2,3.8,1.2,7.4l-0.1,9.7c0,2.8,0.1,4.8,0.4,6.1c0.3,1.3,0.8,2.7,1.6,4.2h-8.6
				c-0.2-0.6-0.5-1.4-0.8-2.4c-0.1-0.5-0.2-0.8-0.3-1c-1.5,1.4-3.1,2.4-4.8,3.1c-1.7,0.7-3.5,1-5.4,1c-3.4,0-6.1-0.9-8-2.6
				c-2-1.8-2.9-4-2.9-6.6c0-1.8,0.4-3.3,1.3-4.7c0.9-1.4,2.1-2.4,3.7-3.2c1.6-0.7,3.9-1.4,6.9-1.9c4.1-0.7,6.9-1.4,8.5-2v-0.8
				c0-1.6-0.4-2.7-1.2-3.4s-2.4-1-4.7-1c-1.5,0-2.8,0.3-3.6,0.9S474.6,105.7,474.1,107.1z M485.8,113.8c-1.1,0.4-2.9,0.8-5.3,1.3
				c-2.4,0.5-4,1-4.7,1.4c-1.1,0.8-1.7,1.7-1.7,2.9c0,1.2,0.5,2.2,1.4,3c0.9,0.8,2.1,1.3,3.5,1.3c1.6,0,3.1-0.5,4.5-1.5
				c1.1-0.7,1.7-1.7,2.1-2.7c0.2-0.7,0.3-2.1,0.3-4V113.8z"/>
		</g>
		<g>
			<path class="st2" d="M498.8,97.6h9.3l7.9,22.2l7.7-22.2h9L521,127.7l-2.1,5.5c-0.8,1.8-1.5,3.2-2.2,4.2s-1.5,1.7-2.4,2.3
				c-0.9,0.6-2,1.1-3.3,1.4c-1.3,0.3-2.8,0.5-4.4,0.5c-1.7,0-3.3-0.2-4.9-0.5l-0.8-6.5c1.4,0.3,2.6,0.4,3.7,0.4c2,0,3.5-0.6,4.5-1.7
				c1-1.1,1.7-2.6,2.2-4.3L498.8,97.6z"/>
		</g>
	</g>
	<g>
		<g>
			<path class="st2" d="M182.9,58.1v-3.6l11,0v11.2c-1.7,1.6-3.4,2.7-5.2,3.5c-1.8,0.8-3.7,1.2-5.6,1.2c-2.5,0-4.8-0.6-6.8-1.8
				c-2-1.2-3.6-3-4.7-5.3c-1.2-2.3-1.7-5.1-1.7-8.4c0-3.3,0.6-6.2,1.8-8.6c1.2-2.5,2.7-4.3,4.6-5.4c1.9-1.2,4.1-1.7,6.7-1.7
				c1.9,0,3.6,0.3,5,1c1.4,0.7,2.6,1.6,3.5,2.9c0.9,1.2,1.6,2.9,2.1,5.1l-3.1,1c-0.4-1.7-0.9-3-1.6-3.8c-0.6-0.8-1.5-1.5-2.5-2
				c-1-0.5-2.2-0.7-3.5-0.7c-1.9,0-3.5,0.4-4.9,1.3c-1.4,0.9-2.5,2.2-3.3,4.1c-0.8,1.8-1.2,4.1-1.2,6.8c0,4,0.9,7.1,2.7,9.1
				c1.8,2,4.1,3,6.9,3c1.4,0,2.7-0.3,4.2-0.9c1.4-0.6,2.6-1.4,3.4-2.2v-5.6H182.9z"/>
		</g>
		<g>
			<path class="st2" d="M199,70V39.8h18.8v3.6h-15.4v9.2h14.4v3.6h-14.4v10.3h16V70H199z"/>
		</g>
		<g>
			<path class="st2" d="M229.9,70V43.3h-8.6v-3.6H242v3.6h-8.6V70H229.9z"/>
		</g>
		<g>
			<path class="st2" d="M255.6,70V39.8h3.4V70H255.6z"/>
		</g>
		<g>
			<path class="st2" d="M271.8,70V43.3h-8.6v-3.6h20.7v3.6h-8.6V70H271.8z"/>
		</g>
		<g>
			<path class="st2" d="M295.9,55.3c0-5.2,1.2-9.1,3.6-11.9c2.4-2.8,5.4-4.2,8.9-4.2c2.3,0,4.4,0.6,6.3,1.9c1.9,1.2,3.4,3,4.5,5.4
				c1.1,2.4,1.7,5.2,1.7,8.4c0,4.5-1.1,8.1-3.2,11c-2.4,3.1-5.4,4.7-9.3,4.7c-3.8,0-6.9-1.6-9.3-4.8
				C296.9,62.8,295.9,59.4,295.9,55.3z M299.4,55.3c0,3.7,0.9,6.6,2.6,8.7c1.7,2.1,3.8,3.1,6.3,3.1c2.5,0,4.6-1,6.4-3.1
				c1.7-2.1,2.6-5.1,2.6-9.2c0-2.6-0.4-4.9-1.3-7c-0.7-1.6-1.7-2.8-3.1-3.8c-1.4-0.9-2.9-1.4-4.5-1.4c-2.6,0-4.7,1-6.4,3.1
				C300.3,47.8,299.4,51,299.4,55.3z"/>
		</g>
		<g>
			<path class="st2" d="M325.1,70V39.8h3.5l13.7,23.8V39.8h3.3V70h-3.5l-13.7-23.8V70H325.1z"/>
		</g>
	</g>
</g>
</svg>
